<svg width="54" height="54" viewBox="0 0 54 54" fill="none" xmlns="http://www.w3.org/2000/svg">
<g id="location 1">
<path id="Vector" d="M27 4.5C22.2261 4.5 17.6477 6.39642 14.2721 9.77208C10.8964 13.1477 9 17.7261 9 22.5C9 34.65 24.8625 48.375 25.5375 48.96C25.945 49.3086 26.4637 49.5002 27 49.5002C27.5363 49.5002 28.055 49.3086 28.4625 48.96C29.25 48.375 45 34.65 45 22.5C45 17.7261 43.1036 13.1477 39.7279 9.77208C36.3523 6.39642 31.7739 4.5 27 4.5ZM27 44.2125C22.2075 39.7125 13.5 30.015 13.5 22.5C13.5 18.9196 14.9223 15.4858 17.4541 12.9541C19.9858 10.4223 23.4196 9 27 9C30.5804 9 34.0142 10.4223 36.5459 12.9541C39.0777 15.4858 40.5 18.9196 40.5 22.5C40.5 30.015 31.7925 39.735 27 44.2125ZM27 13.5C25.22 13.5 23.4799 14.0278 21.9999 15.0168C20.5198 16.0057 19.3663 17.4113 18.6851 19.0559C18.0039 20.7004 17.8257 22.51 18.1729 24.2558C18.5202 26.0016 19.3774 27.6053 20.636 28.864C21.8947 30.1226 23.4984 30.9798 25.2442 31.3271C26.99 31.6743 28.7996 31.4961 30.4442 30.8149C32.0887 30.1337 33.4943 28.9802 34.4832 27.5001C35.4722 26.0201 36 24.28 36 22.5C36 20.1131 35.0518 17.8239 33.364 16.136C31.6761 14.4482 29.3869 13.5 27 13.5ZM27 27C26.11 27 25.24 26.7361 24.4999 26.2416C23.7599 25.7471 23.1831 25.0443 22.8425 24.2221C22.5019 23.3998 22.4128 22.495 22.5865 21.6221C22.7601 20.7492 23.1887 19.9474 23.818 19.318C24.4474 18.6887 25.2492 18.2601 26.1221 18.0865C26.995 17.9128 27.8998 18.0019 28.7221 18.3425C29.5443 18.6831 30.2471 19.2599 30.7416 19.9999C31.2361 20.74 31.5 21.61 31.5 22.5C31.5 23.6935 31.0259 24.8381 30.182 25.682C29.3381 26.5259 28.1935 27 27 27Z" fill="white"/>
</g>
</svg>
